<svg viewBox="0 0 1200 630" xmlns="http://www.w3.org/2000/svg" role="img" aria-label="Data Driven Day">
  <defs>
    <linearGradient id="bg" x1="0" y1="0" x2="1" y2="1">
      <stop offset="0%" stop-color="#0b1f5e" />
      <stop offset="100%" stop-color="#09163f" />
    </linearGradient>
    <linearGradient id="glow" x1="0" y1="0" x2="1" y2="1">
      <stop offset="0%" stop-color="#60a5fa" stop-opacity="0.25" />
      <stop offset="100%" stop-color="#93c5fd" stop-opacity="0.02" />
    </linearGradient>
  </defs>
  <rect width="1200" height="630" fill="url(#bg)"/>
  <circle cx="1040" cy="110" r="180" fill="url(#glow)"/>
  <circle cx="180" cy="520" r="220" fill="url(#glow)"/>

  <g fill="none" stroke="#ffffff" stroke-width="24" stroke-linecap="round" stroke-linejoin="round">
    <path d="M180 372V314c0-6.6 5.4-12 12-12h18c6.6 0 12 5.4 12 12v46" />
    <path d="M232 338V282c0-6.6 5.4-12 12-12h18c6.6 0 12 5.4 12 12v28" />
    <path d="M284 324V248c0-6.6 5.4-12 12-12h18c6.6 0 12 5.4 12 12v50" />
    <path d="M336 292V206c0-6.6 5.4-12 12-12h18c6.6 0 12 5.4 12 12v86" />
  </g>

  <text x="432" y="380" fill="#ffffff" font-family="DM Sans, Inter, Arial, sans-serif" font-size="112" font-weight="800" letter-spacing="-5">
    datadriven.day
  </text>
  <text x="180" y="450" fill="#cbd5e1" font-family="Inter, Arial, sans-serif" font-size="34" font-weight="500">
    Hermosillo 2026 · datos, ciudad e inteligencia aplicada
  </text>
</svg>